<?xml version="1.0" encoding="iso-8859-1"?>
<!-- Generator: Adobe Illustrator 19.0.0, SVG Export Plug-In . SVG Version: 6.00 Build 0)  -->
<svg version="1.1" id="Layer_1" xmlns="http://www.w3.org/2000/svg" xmlns:xlink="http://www.w3.org/1999/xlink" x="0px" y="0px"
	 viewBox="0 0 512 512" style="enable-background:new 0 0 512 512;" xml:space="preserve">
<circle style="fill:#F8E99B;" cx="385.438" cy="132.315" r="109.303"/>
<path style="fill:#F5DC60;" d="M385.438,23.011v218.607c60.367,0,109.303-48.937,109.303-109.303S445.805,23.011,385.438,23.011z"/>
<path style="fill:#E8F4FC;" d="M11.506,316.405c0-41.303,33.484-74.787,74.787-74.787c0-82.607,66.966-149.573,149.573-149.573
	s149.573,66.966,149.573,149.573c41.303,0,74.787,33.484,74.787,74.787"/>
<g>
	<rect y="339.416" style="fill:#D1E5F5;" width="477.483" height="34.517"/>
	<rect y="454.472" style="fill:#D1E5F5;" width="477.483" height="34.517"/>
	<rect x="34.517" y="396.944" style="fill:#D1E5F5;" width="477.483" height="34.517"/>
	<path style="fill:#D1E5F5;" d="M385.438,241.618c0-82.607-66.966-149.573-149.573-149.573v224.36h224.36
		C460.225,275.102,426.741,241.618,385.438,241.618z"/>
</g>
<g>
</g>
<g>
</g>
<g>
</g>
<g>
</g>
<g>
</g>
<g>
</g>
<g>
</g>
<g>
</g>
<g>
</g>
<g>
</g>
<g>
</g>
<g>
</g>
<g>
</g>
<g>
</g>
<g>
</g>
</svg>
