<?xml version="1.0" encoding="iso-8859-1"?>
<!-- Generator: Adobe Illustrator 19.0.0, SVG Export Plug-In . SVG Version: 6.00 Build 0)  -->
<svg version="1.1" id="Layer_1" xmlns="http://www.w3.org/2000/svg" xmlns:xlink="http://www.w3.org/1999/xlink" x="0px" y="0px"
	 viewBox="0 0 512 512" style="enable-background:new 0 0 512 512;" xml:space="preserve">
<path style="fill:#F7B239;" d="M434.967,136.272c0,14.873-2.555,29.124-7.271,42.383c-16.577-23.213-43.73-38.34-74.443-38.34
	c-16.348,0-31.666,4.297-44.951,11.81c-19.755-32.81-55.718-54.752-96.804-54.752c-8.505,0-16.793,0.941-24.764,2.733
	C202.281,47.731,250.791,9.53,308.225,9.53C378.219,9.53,434.967,66.278,434.967,136.272z"/>
<path style="fill:#E09B2D;" d="M347.436,15.724c-12.349-4.015-25.525-6.193-39.211-6.193c-57.434,0-105.944,38.2-121.491,90.575
	c7.971-1.792,16.259-2.733,24.764-2.733c11.182,0,21.978,1.636,32.177,4.663C258.539,56.408,298.594,22.163,347.436,15.724z"/>
<path style="fill:#2197D8;" d="M444.692,230.025c24.357,1.576,43.641,21.814,43.641,46.578c0,25.781-20.899,46.68-46.68,46.68
	c-14.365,0-325.307,0-344.833,0c-40.4,0-73.146-32.76-73.146-73.159s32.747-73.159,73.146-73.159c2.25,0,4.462,0.114,6.649,0.318
	c11.772-38.531,43.565-68.303,83.265-77.176c7.971-1.792,16.259-2.733,24.764-2.733c41.086,0,77.049,21.941,96.804,54.752
	c13.284-7.513,28.603-11.81,44.951-11.81c30.713,0,57.866,15.128,74.443,38.34C438.081,193.185,444.336,210.88,444.692,230.025z"/>
<path style="fill:#178BBF;" d="M63.085,259.022c0-40.4,32.747-73.159,73.146-73.159c2.25,0,4.462,0.114,6.649,0.318
	c11.772-38.531,43.565-68.303,83.265-77.176c7.971-1.792,16.259-2.733,24.764-2.733c1.623,0,3.237,0.047,4.843,0.114
	c-13.592-5.796-28.547-9.013-44.255-9.013c-8.505,0-16.793,0.941-24.764,2.733c-39.7,8.873-71.494,38.645-83.265,77.176
	c-2.187-0.203-4.398-0.318-6.649-0.318c-40.4,0-73.146,32.76-73.146,73.159s32.747,73.159,73.146,73.159c0.889,0,2.387,0,4.428,0
	C78.51,310.874,63.085,286.748,63.085,259.022z"/>
<g>
	<path style="fill:#FFFFFF;" d="M412.911,240.149c-5.184,0-9.433-4.153-9.529-9.358c-0.187-10.143-3.406-19.867-9.307-28.122
		c-4.355-6.098-10.141-11.23-16.732-14.847c-4.616-2.532-6.305-8.328-3.773-12.945s8.328-6.305,12.945-3.774
		c9.088,4.986,17.068,12.067,23.075,20.479c8.151,11.403,12.598,24.84,12.857,38.855c0.097,5.264-4.092,9.612-9.356,9.708
		C413.032,240.149,412.971,240.149,412.911,240.149z"/>
	<path style="fill:#FFFFFF;" d="M281.082,178.053c-3.234,0-6.387-1.645-8.178-4.618c-13.1-21.757-36.056-34.748-61.408-34.748
		c-5.265,0-9.534-4.269-9.534-9.534c0-5.265,4.269-9.534,9.534-9.534c32.1,0,61.164,16.441,77.745,43.981
		c2.715,4.512,1.26,10.369-3.252,13.086C284.453,177.612,282.757,178.053,281.082,178.053z"/>
</g>
<g>
	<path style="fill:#2197D8;" d="M157.41,512c-3.735,0-7.282-2.209-8.806-5.874l-59.112-142.06
		c-2.023-4.861,0.278-10.443,5.14-12.466c4.859-2.023,10.443,0.278,12.466,5.14L166.21,498.8c2.023,4.861-0.278,10.443-5.14,12.466
		C159.872,511.764,158.631,512,157.41,512z"/>
	<path style="fill:#2197D8;" d="M252.664,512c-3.735,0-7.282-2.209-8.806-5.874l-59.112-142.06
		c-2.023-4.861,0.278-10.443,5.14-12.466c4.859-2.023,10.442,0.278,12.466,5.14l59.112,142.06
		c2.023,4.861-0.278,10.443-5.141,12.466C255.125,511.764,253.884,512,252.664,512z"/>
	<path style="fill:#2197D8;" d="M347.928,512c-3.735,0-7.282-2.209-8.807-5.874l-59.112-142.06
		c-2.023-4.861,0.278-10.443,5.141-12.466c4.859-2.024,10.442,0.278,12.466,5.14l59.112,142.06
		c2.023,4.861-0.278,10.443-5.141,12.466C350.391,511.764,349.149,512,347.928,512z"/>
	<path style="fill:#2197D8;" d="M443.183,512c-3.735,0-7.282-2.209-8.807-5.874l-59.112-142.06
		c-2.023-4.861,0.278-10.443,5.141-12.466c4.859-2.024,10.441,0.278,12.466,5.14l59.112,142.06
		c2.023,4.861-0.278,10.443-5.141,12.466C445.644,511.764,444.403,512,443.183,512z"/>
</g>
<circle style="fill:#FFFFFF;" cx="353.248" cy="172.099" r="9.534"/>
<path style="fill:#333333;" d="M453.743,221.705c-1.58-15.993-6.907-31.182-15.512-44.529c4.152-13.175,6.271-26.908,6.271-40.903
	C444.502,61.132,383.37,0,308.229,0c-29.96,0-58.389,9.538-82.209,27.582c-21.561,16.333-38.002,39.093-46.734,64.536
	c-14.81,4.017-28.773,10.811-41.316,20.241c-18.627,14.005-33.068,33.361-41.22,55.071c-45.562,0.041-82.616,37.121-82.616,82.693
	c0,45.596,37.096,82.693,82.693,82.693H441.65c30.998,0,56.216-25.219,56.216-56.215
	C497.865,249.935,479.068,227.273,453.743,221.705z M237.532,42.782c20.481-15.514,44.926-23.713,70.697-23.713
	c64.627,0,117.205,52.578,117.205,117.205c0,7.686-0.761,15.271-2.221,22.7c-18.901-18.18-43.693-28.195-69.963-28.195
	c-14.371,0-28.595,3.085-41.626,8.98c-22.957-32.672-59.767-51.92-100.13-51.92c-3.413,0-6.804,0.141-10.166,0.416
	C209.364,70.457,221.869,54.648,237.532,42.782z M441.65,313.748H96.826c-35.083,0-63.625-28.542-63.625-63.625
	s28.542-63.625,63.625-63.625c1.834,0,3.726,0.09,5.783,0.276c4.498,0.407,8.656-2.396,9.974-6.71
	c6.335-20.731,19.419-39.364,36.844-52.464c18.007-13.537,39.469-20.693,62.066-20.693c36.592,0,69.732,18.742,88.647,50.136
	c2.664,4.421,8.362,5.921,12.858,3.379c12.238-6.919,26.157-10.577,40.251-10.577c21.61,0,41.998,8.341,57.407,23.485
	c15.388,15.124,24.09,35.324,24.499,56.879c0.094,4.958,3.973,9.014,8.921,9.333c19.468,1.253,34.72,17.53,34.72,37.058
	C478.796,297.084,462.133,313.748,441.65,313.748z"/>
<g>
</g>
<g>
</g>
<g>
</g>
<g>
</g>
<g>
</g>
<g>
</g>
<g>
</g>
<g>
</g>
<g>
</g>
<g>
</g>
<g>
</g>
<g>
</g>
<g>
</g>
<g>
</g>
<g>
</g>
</svg>
